<svg id="Capa_1" data-name="Capa 1" xmlns="http://www.w3.org/2000/svg" xmlns:xlink="http://www.w3.org/1999/xlink" viewBox="0 0 80.85 96.93">
  <defs>
    <style>
    :root {
        --primary: #7289da;
    }
      .cls-1, .cls-2 {
        fill: none;
      }

      .cls-1 {
        clip-rule: evenodd;
      }

      .cls-2 {
        stroke: var(--primary);
        stroke-miterlimit: 10;
        stroke-width: 4px;
      }

      .cls-2, .cls-4 {
        fill-rule: evenodd;
      }

      .cls-3 {
        clip-path: url(#clip-path);
      }

      .cls-4 {
        fill: var(--primary);
      }
    </style>
    <clipPath id="clip-path" transform="translate(-2.27 -0.55)">
      <polygon class="cls-1" points="41.43 38.48 35.93 35.46 21.15 59.04 21.15 66.75 49.63 82.31 42.69 85.93 12.51 70.19 12.51 27.85 28.28 19.62 58.67 35.77 42.43 59.87 47.84 62.81 64.23 38.56 64.23 31.69 34.95 16.14 42.69 12.1 72.88 27.85 72.88 70.19 56.23 78.87 26.26 62.5 41.43 38.48"/>
    </clipPath>
  </defs>
  <title>Sin título-2</title>
  <g>
    <polygon class="cls-2" points="26.04 9.76 40.42 2.26 78.85 22.3 78.85 74.63 40.42 94.67 2 74.63 2 22.3 26.04 9.76"/>
    <g class="cls-3">
      <path class="cls-4" d="M76.92,24.15A2,2,0,0,1,78,26V72.06a2,2,0,0,1-1.11,1.82L43.65,91.24a2,2,0,0,1-1.91,0L8.47,73.88a2,2,0,0,1-1.11-1.82V26a2,2,0,0,1,1.11-1.82L42.16,6.57Z" transform="translate(-2.27 -0.55)"/>
    </g>
  </g>
</svg>
